<svg xmlns="http://www.w3.org/2000/svg" width="2010" height="318.919" viewBox="0 0 2010 318.919" role="img"
     aria-label="번개장터 AI">
    <!-- 원본 번개장터 워드마크 -->
    <g>
        <path d="M265.826 140.875h-98.003L183.718 2.301c.216-1.915-2.074-3.053-3.47-1.728L.641 172.304c-1.353 1.297-.417 3.57 1.44 3.556l95.555-1.022-13.692 141.814c-.187 1.915 2.102 3.01 3.484 1.685l179.823-173.891c1.34-1.282.418-3.542-1.425-3.542zM516.667 209.983v-86.902h-35.793v52.364c0 .95-.748 1.727-1.698 1.785l-154.872 7.515a1.787 1.787 0 0 1-1.872-1.785V18.7c0-.978.792-1.785 1.786-1.785H373.8c.98 0 1.786.792 1.786 1.786v39.851h52.133V18.701c0-.98.791-1.786 1.785-1.786h49.585c.978 0 1.784.792 1.784 1.786v54.436h35.793V15.692c0-.98.792-1.786 1.785-1.786h49.584c.98 0 1.786.792 1.786 1.786v194.291c0 .98-.792 1.786-1.786 1.786h-49.584c-.979 0-1.785-.792-1.785-1.786zM375.6 133.836l52.133-1.108v-31.876h-52.133zM347.07 210.13h50.203c.979 0 1.785.792 1.785 1.784v33.014l168.895-7.516a1.783 1.783 0 0 1 1.858 1.785v47.555a1.79 1.79 0 0 1-1.714 1.785l-220.956 7.501a1.79 1.79 0 0 1-1.842-1.786v-82.338c0-.978.791-1.785 1.785-1.785zM595.684 252.458l3.124-4.506c9.23-13.26 18.025-27.557 26.175-42.487a453.447 453.447 0 0 0 21.855-46.144c6.42-15.808 12.036-31.99 16.658-48.1 3.742-12.973 6.781-26.032 9.055-38.888l.548-3.067h-65.926c-.98 0-1.785-.791-1.785-1.785V22.964c0-.979.792-1.785 1.785-1.785h121.485c1.051 0 1.872.892 1.77 1.93l-.33 3.728c-2.39 27.24-6.551 53.011-12.31 76.58-5.73 23.525-12.656 45.754-20.517 66.126-7.831 20.316-16.628 39.478-26.145 56.985-9.474 17.392-19.249 33.805-29.097 48.822l-1.843 2.807a1.78 1.78 0 0 1-2.433.533l-42.098-26.276v.03zM816.806 295.418V168.952h-20.3v126.466c0 .979-.793 1.785-1.786 1.785h-47.785a1.785 1.785 0 0 1-1.785-1.785V15.692c0-.98.792-1.786 1.785-1.786h47.785c.98 0 1.785.792 1.785 1.786v103.315h20.3V15.692c0-.98.793-1.786 1.785-1.786h48.361c.98 0 1.786.792 1.786 1.786v279.726c0 .979-.792 1.785-1.786 1.785h-48.36a1.785 1.785 0 0 1-1.785-1.785zM892.595 142.325c48.073-38.599 68.258-72.936 68.46-73.311l2.46-3.974h-55.933a1.785 1.785 0 0 1-1.784-1.784V19.315c0-.98.792-1.786 1.784-1.786h168.277c.98 0 1.786.792 1.786 1.786V63.27c0 .978-.792 1.785-1.786 1.785h-52.794l-.764 1.339a338.61 338.61 0 0 1-8.452 14.225l-1.395 2.245 65.263 38.528c.848.504 1.142 1.613.619 2.461l-24.577 40.357a1.776 1.776 0 0 1-2.505.561l-66.3-43.883-1.512 1.9c-19.422 24.505-48.13 48.85-57.863 56.855a1.765 1.765 0 0 1-2.49-.26l-30.523-37.058zM1097.98 167.814V15.692a1.78 1.78 0 0 1 1.787-1.786h47.22c.98 0 1.787.792 1.787 1.786v49.196h36.87c.98 0 1.787.79 1.787 1.784v46.374c0 .98-.796 1.786-1.787 1.786h-36.87v52.982c0 .98-.795 1.786-1.787 1.786h-47.22c-.98 0-1.787-.792-1.787-1.786zM1406.842 295.418V168.952h-45.892c-.97 0-1.776-.793-1.776-1.786v-46.374c0-.979.785-1.785 1.776-1.785h45.892V15.692c0-.98.795-1.786 1.786-1.786h49.585c.98 0 1.787.792 1.787 1.786v279.726c0 .979-.795 1.785-1.787 1.785h-49.585c-.98 0-1.786-.792-1.786-1.785z"/>
        <path d="M1213.177 19.06h145.246c.98 0 1.786.792 1.786 1.785v44.56a1.78 1.78 0 0 1-1.786 1.785h-93.886v51.83h72.596c.98 0 1.787.792 1.787 1.786v46.374c0 .98-.795 1.786-1.787 1.786h-72.596v61.677l121.821-10.827a1.783 1.783 0 0 1 1.929 1.772v44.157c0 .92-.708 1.684-1.613 1.77l-173.345 16.457a1.77 1.77 0 0 1-1.94-1.772V20.83a1.78 1.78 0 0 1 1.788-1.784zM1037.381 309.915c-100.105 0-115.064-42.315-115.064-67.553 0-55.833 62.557-67.552 115.064-67.552 73.107 0 115.065 24.633 115.065 67.552 0 25.21-14.96 67.553-115.065 67.553zm0-87.954c-29.285 0-62.888 2.332-62.888 20.487 0 13.966 19.983 20.46 62.888 20.46s62.887-6.522 62.887-20.46c0-13.936-21.159-20.487-62.887-20.487z"/>
    </g>

    <!-- 추가된 AI 텍스트 -->
    <text x="1545" y="288" font-family="-apple-system, 'Segoe UI', Roboto, Helvetica, Arial, sans-serif"
          font-size="385" font-weight="700" fill="#000000">AI
    </text>
</svg>
